<svg xmlns="http://www.w3.org/2000/svg" enable-background="new 0 0 64 64" viewBox="0 0 64 64"><path d="M49.8,2H21.9c-0.3,0-0.5,0.1-0.7,0.3L20.5,3h-0.2v0.2L10.5,13c-0.2,0.2-0.3,0.4-0.3,0.7v44.2c0,2.2,1.8,4.1,4.1,4.1h35.5
		c2.2,0,4.1-1.8,4.1-4.1V6.1C53.8,3.8,52,2,49.8,2z M20.3,6v5.3c0,1.1-0.9,1.9-1.9,1.9H13L20.3,6z M51.8,57.9c0,1.1-0.9,2.1-2.1,2.1
		H14.2c-1.1,0-2.1-0.9-2.1-2.1V15.3h6.2c2.2,0,3.9-1.8,3.9-3.9V4l0,0h27.4c1.1,0,2.1,0.9,2.1,2.1V57.9z"/><path d="M39.9,28.5H24.1c-3.8,0-6.9,3.1-6.9,6.9v8.3c0,3.8,3.1,6.9,6.9,6.9h15.9c3.8,0,6.9-3.1,6.9-6.9v-8.3
		C46.9,31.6,43.8,28.5,39.9,28.5z M44.9,43.7c0,2.7-2.2,4.9-4.9,4.9H24.1c-2.7,0-4.9-2.2-4.9-4.9v-8.3c0-2.7,2.2-4.9,4.9-4.9h15.9
		c2.7,0,4.9,2.2,4.9,4.9V43.7z"/><path d="M38.5,39.3L29,33.9c-0.3-0.2-0.7-0.2-1,0c-0.3,0.2-0.5,0.5-0.5,0.9v10.9c0,0.4,0.2,0.7,0.5,0.9c0.2,0.1,0.3,0.1,0.5,0.1
		s0.3,0,0.5-0.1l9.5-5.5c0.3-0.2,0.5-0.5,0.5-0.9S38.8,39.5,38.5,39.3z M29.5,43.9v-7.5l6.5,3.7L29.5,43.9z"/></svg>